<?xml version="1.0" encoding="UTF-8" ?>
<!DOCTYPE svg PUBLIC "-//W3C//DTD SVG 1.1//EN" "http://www.w3.org/Graphics/SVG/1.1/DTD/svg11.dtd">
<svg width="110pt" height="79pt" viewBox="0 0 110 79" version="1.1" xmlns="http://www.w3.org/2000/svg">
<g id="#050708ff">
<path fill="#050708" opacity="1.00" d=" M 0.00 0.00 L 2.87 0.00 C 9.55 14.85 16.18 29.71 22.95 44.52 C 29.94 29.70 36.78 14.82 43.76 0.00 L 46.30 0.00 C 39.11 15.85 31.51 31.52 24.21 47.32 C 23.31 47.33 22.40 47.33 21.50 47.33 C 14.24 31.63 7.49 15.71 0.00 0.12 L 0.00 0.00 Z" />
<path fill="#050708" opacity="1.00" d=" M 48.90 0.00 L 85.33 0.00 C 85.09 1.13 84.71 2.21 84.21 3.24 C 78.31 15.18 72.67 27.26 66.88 39.26 C 60.70 26.26 55.26 12.91 48.90 0.00 Z" />
<path fill="#050708" opacity="1.00" d=" M 88.19 0.00 L 110.00 0.00 L 110.00 46.44 C 102.89 31.91 96.65 16.96 89.85 2.29 C 89.44 1.72 88.61 0.57 88.19 0.00 Z" />
<path fill="#050708" opacity="1.00" d=" M 84.35 8.34 C 85.23 6.39 86.29 4.53 87.42 2.71 C 94.07 17.59 100.80 32.43 107.48 47.30 C 80.64 47.30 53.80 47.29 26.96 47.30 C 33.62 32.46 40.84 17.88 47.54 3.05 C 54.35 16.45 59.78 30.53 66.53 43.96 C 67.73 43.84 67.94 42.45 68.50 41.61 C 73.69 30.48 79.15 19.47 84.35 8.34 Z" />
<path fill="#050708" opacity="1.00" d=" M 60.83 50.16 C 61.54 50.53 62.96 51.26 63.67 51.63 C 59.17 60.29 54.94 69.11 50.87 77.97 C 49.74 77.85 48.62 77.72 47.51 77.57 C 52.06 68.49 56.36 59.29 60.83 50.16 Z" />
</g>
<g id="#0e76bcff">
<path fill="#0e76bc" opacity="1.00" d=" M 2.87 0.00 L 43.76 0.00 C 36.78 14.82 29.94 29.70 22.95 44.52 C 16.18 29.71 9.55 14.85 2.87 0.00 Z" />
<path fill="#0e76bc" opacity="1.00" d=" M 46.30 0.00 L 48.90 0.00 C 55.26 12.91 60.70 26.26 66.88 39.26 C 72.67 27.26 78.31 15.18 84.21 3.24 C 84.71 2.21 85.09 1.13 85.33 -0.00 L 88.19 0.00 C 88.61 0.57 89.44 1.72 89.85 2.29 C 96.65 16.96 102.89 31.91 110.00 46.44 L 110.00 47.31 C 109.37 47.30 108.11 47.30 107.48 47.30 C 100.80 32.43 94.07 17.59 87.42 2.71 C 86.29 4.53 85.23 6.39 84.35 8.34 C 79.15 19.47 73.69 30.48 68.50 41.61 C 67.94 42.45 67.73 43.84 66.53 43.96 C 59.78 30.53 54.35 16.45 47.54 3.05 C 40.84 17.88 33.62 32.46 26.96 47.30 C 26.27 47.31 24.90 47.32 24.21 47.32 C 31.51 31.52 39.11 15.85 46.30 0.00 Z" />
<path fill="#0e76bc" opacity="1.00" d=" M 0.00 0.12 C 7.49 15.71 14.24 31.63 21.50 47.33 C 14.33 47.26 7.17 47.30 0.00 47.29 L 0.00 0.12 Z" />
<path fill="#0e76bc" opacity="1.00" d=" M 13.12 59.27 C 14.34 56.73 16.18 54.48 18.98 53.64 C 19.75 53.64 21.30 53.63 22.07 53.62 C 24.87 54.57 27.74 56.82 27.60 60.07 C 27.89 62.60 26.33 64.83 24.44 66.33 C 21.22 68.93 17.35 70.83 15.00 74.37 C 19.24 74.69 23.49 74.54 27.74 74.54 C 27.68 74.99 27.57 75.88 27.52 76.33 C 23.09 76.29 18.67 76.19 14.24 76.42 C 14.28 74.48 14.13 72.21 15.86 70.88 C 18.87 68.16 22.53 66.21 25.26 63.16 C 25.54 62.04 25.94 60.97 26.48 59.95 C 25.56 58.33 24.49 56.80 23.18 55.47 C 21.44 55.48 19.69 55.50 17.95 55.56 C 16.71 56.74 15.60 58.09 15.27 59.82 C 14.74 59.68 13.66 59.41 13.12 59.27 Z" />
<path fill="#0e76bc" opacity="1.00" d=" M 36.39 54.58 C 40.67 53.25 46.03 54.73 47.45 59.35 C 47.77 63.19 47.75 67.09 47.47 70.94 C 46.00 76.66 37.68 78.62 33.81 74.12 C 30.49 71.36 31.69 66.73 31.48 62.98 C 31.05 59.49 33.02 55.79 36.39 54.58 M 33.56 58.85 C 33.32 62.92 33.07 67.03 33.57 71.09 C 34.20 72.51 35.57 73.41 36.59 74.54 C 39.15 74.64 42.22 75.33 44.15 73.13 C 47.48 69.97 45.91 64.95 46.28 60.90 C 45.42 58.15 43.12 55.51 40.03 55.56 C 37.28 55.01 35.38 57.24 33.56 58.85 Z" />
<path fill="#0e76bc" opacity="1.00" d=" M 63.16 59.99 C 63.21 56.04 67.35 53.03 71.14 53.68 C 73.31 53.87 74.84 55.52 76.37 56.87 C 77.64 59.60 77.55 63.06 75.13 65.12 C 72.23 68.75 66.66 69.92 65.09 74.54 C 68.99 74.59 72.90 74.57 76.80 74.50 C 76.80 74.95 76.81 75.86 76.81 76.31 C 72.29 76.28 67.77 76.26 63.25 76.34 C 63.47 73.79 64.38 71.16 66.63 69.72 C 69.82 67.56 73.06 65.39 75.44 62.30 C 75.46 61.39 75.49 59.57 75.51 58.66 C 74.48 57.54 73.42 56.45 72.33 55.40 C 70.78 55.43 69.22 55.45 67.67 55.45 C 65.73 56.63 65.67 59.72 63.16 59.99 Z" />
<path fill="#0e76bc" opacity="1.00" d=" M 86.37 54.43 C 89.27 54.11 92.74 53.79 94.91 56.18 C 98.55 59.43 97.17 64.77 97.34 69.06 C 97.30 74.51 90.84 78.16 85.98 76.02 C 83.61 74.93 81.29 72.82 81.35 70.01 C 81.30 66.22 81.03 62.39 81.59 58.63 C 82.74 56.89 84.28 54.99 86.37 54.43 M 85.04 57.01 C 81.14 60.28 83.19 65.83 82.61 70.21 C 83.56 71.72 84.67 73.12 85.85 74.45 C 88.00 74.67 90.16 74.73 92.31 74.56 C 93.35 73.46 94.41 72.36 95.46 71.27 C 95.59 67.41 95.54 63.55 95.55 59.68 C 94.34 58.08 92.87 56.70 91.27 55.49 C 89.17 55.70 86.60 55.21 85.04 57.01 Z" />
</g>
<g id="#ffffffff">
</g>
</svg>
